<svg width="15" height="11" viewBox="0 0 15 11" fill="none" xmlns="http://www.w3.org/2000/svg">
<path d="M3.30478 8.23931C6.56691 9.51238 9.34298 9.76035 12.4889 7.77878C12.4658 7.81337 11.8435 8.73528 10.2071 9.20775C10.5528 9.68026 11.0253 10.2219 11.0253 10.2219C12.074 10.2219 13.0996 9.92224 13.987 9.34604C14.6784 8.88506 15.0702 8.0899 14.9896 7.26019C14.8513 5.84271 14.5171 4.45983 13.9985 3.13458C13.3416 1.40598 11.7628 0.207462 9.93051 0.0345885C9.76916 0.023059 9.65394 0.0230591 9.58479 0.0230591L9.40042 0.207428C11.5093 0.806688 12.558 1.74013 12.5811 1.77472C9.34278 0.138285 5.5168 0.115261 2.25546 1.70558C2.25546 1.70558 3.29263 0.679932 5.58591 0.138285L5.44762 0C5.20561 0 4.97512 0.0230589 4.73314 0.0576132C3.03909 0.345714 1.62164 1.50965 1.01086 3.11149C0.480739 4.49438 0.135025 5.94641 0.00826891 7.4215C-0.0608738 8.20513 0.307899 8.97726 0.953242 9.42671C1.80601 9.99138 2.82013 10.291 3.84578 10.291C3.84578 10.291 4.26063 9.74936 4.67552 9.26537C3.11976 8.80439 2.48595 7.88248 2.47442 7.84789L2.7672 7.9974C2.94223 8.08683 3.12168 8.16784 3.30478 8.23931ZM5.11344 7.23713C4.36436 7.21407 3.77663 6.58026 3.79969 5.81966C3.82275 5.10517 4.39895 4.52897 5.11344 4.50591C5.86251 4.52897 6.45024 5.16278 6.42718 5.92339C6.3926 6.63791 5.82792 7.21411 5.11344 7.23713ZM9.81525 7.23713C9.06617 7.21407 8.47844 6.58026 8.5015 5.81966C8.52456 5.10517 9.10076 4.52897 9.81525 4.50591C10.5643 4.52897 11.1521 5.16278 11.129 5.92339C11.106 6.63791 10.5297 7.21411 9.81525 7.23713Z" fill="white"/>
</svg>
