<svg width="15" height="15" viewBox="0 0 15 15" fill="none" xmlns="http://www.w3.org/2000/svg">
<path d="M10.9396 0H4.06036C1.82144 0 0 1.82144 0 4.06036V10.9397C0 13.1785 1.82144 15 4.06036 15H10.9397C13.1785 15 15 13.1785 15 10.9397V4.06036C15 1.82144 13.1785 0 10.9396 0ZM7.49999 11.6014C5.23841 11.6014 3.39855 9.76156 3.39855 7.49999C3.39855 5.23841 5.23841 3.39855 7.49999 3.39855C9.76156 3.39855 11.6014 5.23841 11.6014 7.49999C11.6014 9.76156 9.76156 11.6014 7.49999 11.6014ZM11.6995 4.3658C11.0312 4.3658 10.4876 3.8222 10.4876 3.15387C10.4876 2.48554 11.0312 1.94183 11.6995 1.94183C12.3678 1.94183 12.9115 2.48554 12.9115 3.15387C12.9115 3.8222 12.3678 4.3658 11.6995 4.3658Z" fill="white"/>
<path d="M7.49999 4.27791C5.72341 4.27791 4.27791 5.72329 4.27791 7.49999C4.27791 9.27656 5.72341 10.7221 7.49999 10.7221C9.27668 10.7221 10.7221 9.27656 10.7221 7.49999C10.7221 5.72329 9.27668 4.27791 7.49999 4.27791Z" fill="white"/>
<path d="M11.6995 2.82131C11.5162 2.82131 11.3669 2.97054 11.3669 3.15387C11.3669 3.33721 11.5162 3.48644 11.6995 3.48644C11.8829 3.48644 12.0322 3.33732 12.0322 3.15387C12.0322 2.97042 11.8829 2.82131 11.6995 2.82131Z" fill="white"/>
</svg>
