<svg width="169" height="62" viewBox="0 0 169 62" fill="none" xmlns="http://www.w3.org/2000/svg">
<path d="M29.5044 37.9343L29.8545 39.7055C30.0256 40.5679 30.1057 41.4342 30.1057 42.2936C30.1038 45.5265 28.9714 48.6417 27.1824 51.2892C25.3894 53.9376 22.9338 56.136 20.1687 57.5314C18.893 58.1743 16.1724 58.8962 16.1724 58.8962C24.2749 59.986 36.3401 50.1687 29.5044 37.9343Z" fill="white"/>
<path d="M14.2736 57.741C22.1545 57.4839 30.2106 48.4923 28.5244 39.9686C28.5244 39.9686 23.9347 48.7732 13.3499 48.3984C13.3499 48.3984 21.9676 46.3374 25.0581 39.6877C25.0581 39.6877 13.6307 44.3714 8.01053 38.2824C8.01053 38.2824 16.6283 41.6547 22.2475 36.5962C22.2475 36.5962 11.7567 38.6572 6.60522 27.6976C6.60522 27.6976 9.8836 32.7561 15.7847 33.4118C8.6662 16.833 18.0326 7.37265 26.5761 0C26.5761 0 13.2559 3.53254 8.85311 16.0834C8.85311 16.0834 7.03344 14.2409 8.00954 10.1714C8.00954 10.1714 3.42079 15.4277 6.41732 23.5767C6.41732 23.5767 3.75209 21.8608 3.30014 17.1C3.30014 17.1 -0.139441 28.6342 7.44781 34.7231C7.44781 34.7231 3.78374 36.1057 0 32.7621C0 32.7621 2.73643 43.9956 13.2876 44.9331C13.2876 44.9331 8.77993 47.0772 3.33673 45.4899C3.33673 45.4899 9.41484 56.7353 22.7153 49.8977C22.7173 49.8977 20.6296 55.6563 14.2736 57.741Z" fill="white"/>
<path d="M49.9966 44.9331C60.5487 43.9966 63.2842 32.7621 63.2842 32.7621C59.7239 35.7744 55.8364 34.7231 55.8364 34.7231C63.4236 28.6352 59.984 17.1 59.984 17.1C59.9168 21.7698 56.8668 23.5767 56.8668 23.5767C59.8644 15.4277 55.2746 10.1714 55.2746 10.1714C56.2606 14.3626 54.431 16.0834 54.431 16.0834C50.0282 3.53254 36.708 0 36.708 0C45.2516 7.37265 54.618 16.833 47.4995 33.4118C53.4006 32.7561 56.6789 27.6976 56.6789 27.6976C51.5275 38.6562 41.0367 36.5962 41.0367 36.5962C46.6569 41.6537 55.2736 38.2824 55.2736 38.2824C50.4218 43.5377 41.2503 40.7686 38.8293 39.9122C38.9697 40.3938 39.0864 40.8774 39.1794 41.362C42.7911 46.6885 49.9343 48.3984 49.9343 48.3984C45.3406 48.5606 41.8783 46.9941 39.4276 45.1695C39.2991 47.2947 38.7195 49.3557 37.7454 51.2565C40.5432 54.9749 44.8006 57.6046 49.0096 57.741C42.6536 55.6563 40.5659 49.8977 40.5659 49.8977C53.8664 56.7353 59.9445 45.4899 59.9445 45.4899C54.5042 47.0772 49.9966 44.9331 49.9966 44.9331Z" fill="white"/>
<path d="M37.0225 52.5264C36.6239 53.1573 36.1829 53.7675 35.6953 54.35C38.8718 57.6056 43.4052 59.3956 47.1128 58.8972C47.1128 58.8972 44.3912 58.1753 43.1164 57.5325C40.7954 56.3605 38.6988 54.619 37.0225 52.5264Z" fill="white"/>
<path d="M39.6013 60.464L39.5928 60.4597L39.6013 60.464L39.5928 60.4597L39.6013 60.464Z" fill="white"/>
<path d="M21.8856 61.3913C26.326 62.3852 28.9783 60.8603 31.4606 59.7319C33.9429 60.8613 36.5953 62.3852 41.0357 61.3913C37.3469 60.9156 34.113 59.7348 31.4606 58.0417C28.8082 59.7338 25.5744 60.9156 21.8856 61.3913Z" fill="white"/>
<path d="M23.3249 60.4608L23.3281 60.4597L23.3185 60.464L23.3228 60.4618L23.3185 60.464L23.3249 60.4608Z" fill="white"/>
<path d="M34.5916 55.5437C34.3365 55.7959 34.0764 56.0441 33.8034 56.2834C33.4444 56.5989 33.0657 56.8996 32.677 57.1923C35.7428 59.0219 39.6096 60.1671 44.134 60.262C44.134 60.262 41.4292 59.7507 40.11 59.2058C38.1172 58.38 36.2095 57.1369 34.5916 55.5437Z" fill="white"/>
<path d="M34.1832 34.1623C32.0263 30.9927 32.6503 28.0565 35.4827 25.5881C38.3151 23.1196 40.3157 23.4311 40.3157 23.4311C39.6917 22.2355 37.5872 21.4562 35.6133 22.9634C34.4957 21.4048 32.6513 21.4819 30.5983 23.3016C28.5452 25.1203 25.6357 24.341 25.6357 24.341C27.1172 26.8875 29.455 26.134 29.455 26.134C24.5439 30.9146 28.0517 35.5656 28.0517 35.5656C27.7659 31.5119 29.5846 29.6418 29.5846 29.6418C28.9091 32.396 28.9606 34.6301 30.6902 37.2725C32.2033 39.9773 32.8818 42.6426 32.8808 45.1347C32.8818 48.4952 31.6545 51.4996 29.7933 53.8939C27.9301 56.2931 25.4409 58.1128 22.8043 59.2055C21.4851 59.7505 18.7803 60.2617 18.7803 60.2617C34.9596 60.7622 43.4072 45.1792 34.1832 34.1623Z" fill="white"/>
<path d="M86.0703 17.35C85.109 16.9148 83.9757 16.6973 82.6703 16.6973H76.2935V31.4317H79.7034V27.3691H82.6713C83.9767 27.3691 85.11 27.1554 86.0713 26.7272C87.0326 26.299 87.7723 25.6819 88.2925 24.8749C88.8117 24.0679 89.0718 23.1245 89.0718 22.0435C89.0718 20.9498 88.8117 20.0023 88.2925 19.2023C87.7723 18.4022 87.0316 17.7851 86.0703 17.35ZM84.8183 23.9275C84.2853 24.3696 83.506 24.5901 82.4814 24.5901H79.7034V19.4742H82.4814C83.506 19.4742 84.2843 19.6958 84.8183 20.1368C85.3513 20.5799 85.6184 21.2138 85.6184 22.0416C85.6184 22.8575 85.3513 23.4854 84.8183 23.9275Z" fill="white"/>
<path d="M103.279 31.4317H106.689V16.6973H103.279V22.5074H96.5848V16.6973H93.1749V31.4317H96.5848V25.3912H103.279V31.4317Z" fill="white"/>
<path d="M123.276 28.6953H115.256V25.2854H122.097V22.6331H111.867V31.4318H123.276V28.6953Z" fill="white"/>
<path d="M123.002 16.6973H111.867V19.4337H123.002V16.6973Z" fill="white"/>
<path d="M137.82 25.6433L130.495 16.6973H127.675V31.4317H131.043V22.4856L138.389 31.4317H141.189V16.6973H137.82V25.6433Z" fill="white"/>
<path d="M149.778 16.6973H146.367V31.4317H149.778V16.6973Z" fill="white"/>
<path d="M168.173 31.4317L162.68 23.8118L167.816 16.6973H164.132L160.807 21.4759L157.417 16.6973H153.545L158.722 23.9384L153.271 31.4317H157.186L160.68 26.3168L164.238 31.4317H168.173Z" fill="white"/>
<path d="M76.2935 42.4981H77.8729V40.0119H81.0316V38.744H77.8729V36.9412H81.4509V35.6733H76.2935V42.4981Z" fill="white"/>
<path d="M91.9022 35.6733H90.3228V42.4981H91.9022V35.6733Z" fill="white"/>
<path d="M106.02 39.8171L102.626 35.6733H101.32V42.4981H102.881V38.3554L106.283 42.4981H107.58V35.6733H106.02V39.8171Z" fill="white"/>
<path d="M119.143 35.6733L116.101 42.4981H117.719L119.913 37.223L122.097 42.4981H123.754L120.702 35.6733H119.143Z" fill="white"/>
<path d="M136.965 39.8171L133.572 35.6733H132.266V42.4981H133.826V38.3554L137.228 42.4981H138.525V35.6733H136.965V39.8171Z" fill="white"/>
<path d="M150.165 37.1795C150.497 36.9946 150.873 36.9016 151.297 36.9016C151.979 36.9016 152.551 37.1686 153.013 37.7017L154.026 36.7651C153.702 36.3755 153.3 36.0768 152.823 35.8682C152.345 35.6605 151.81 35.5566 151.219 35.5566C150.517 35.5566 149.885 35.708 149.322 36.0106C148.76 36.3132 148.318 36.7315 147.996 37.2685C147.674 37.8045 147.513 38.4117 147.513 39.0862C147.513 39.7627 147.674 40.3689 147.996 40.9049C148.318 41.4409 148.76 41.8602 149.322 42.1629C149.885 42.4655 150.512 42.6158 151.209 42.6158C151.8 42.6158 152.336 42.512 152.818 42.3043C153.298 42.0966 153.702 41.794 154.026 41.3974L153.013 40.4619C152.552 41.0018 151.979 41.2708 151.297 41.2708C150.873 41.2708 150.497 41.1779 150.165 40.9929C149.834 40.807 149.576 40.5489 149.39 40.2176C149.205 39.8863 149.112 39.5095 149.112 39.0862C149.112 38.6639 149.205 38.2871 149.39 37.9558C149.576 37.6236 149.835 37.3654 150.165 37.1795Z" fill="white"/>
<path d="M168.048 35.6733H162.889V36.9412H168.048V35.6733Z" fill="white"/>
<path d="M164.46 39.6509H167.627V38.4226H162.889V42.4981H168.173V41.2312H164.46V39.6509Z" fill="white"/>
</svg>
