<svg width="45" height="45" viewBox="0 0 45 45" fill="none" xmlns="http://www.w3.org/2000/svg">
<rect width="45" height="45" rx="3" fill="#20ddfe"/>
<path d="M32.2188 22.2188H23.7812V13.7812C23.7812 13.3498 23.4315 13 23 13C22.5685 13 22.2188 13.3498 22.2188 13.7812V22.2188H13.7812C13.3498 22.2188 13 22.5685 13 23C13 23.4315 13.3498 23.7812 13.7812 23.7812H22.2188V32.2188C22.2188 32.6502 22.5685 33 23 33C23.4315 33 23.7812 32.6502 23.7812 32.2188V23.7812H32.2188C32.6502 23.7812 33 23.4315 33 23C33 22.5685 32.6502 22.2188 32.2188 22.2188Z" fill="white"/>
</svg>
